<svg version="1.2" xmlns="http://www.w3.org/2000/svg" viewBox="0 0 1100 300" width="2200" height="600">
	<title>Logo-SynNova-Horizontal-Branca</title>
	<style>
		.s0 { fill: #ffffff } 
		.s1 { fill: #085162 } 
	</style>
	<g id="Camada 1">
		<g id="&lt;Group&gt;">
			<g id="&lt;Group&gt;">
				<g id="&lt;Group&gt;">
					<path id="&lt;Path&gt;" class="s0" d="m342.5 171.8c2-21.8-19.5-45-43.9-53.9-4.2-1.5-6.2-6.3-4.8-10.6l44.7-98.3-126.2 78.1c-12.5 8.2-20.8 22.4-20.8 38.5 0 19 9.7 42.9 44.6 50.9 4.1 2 6.2 6.4 4.8 10.7l-45 103.8 121.7-79.5q0 0 0 0c13.3-8.1 23.4-23.1 24.9-39.7z"/>
					<path id="&lt;Path&gt;" class="s1" d="m310.5 138.4l-59.9 79.8 17-72.1c0.1-0.3-0.2-0.6-0.5-0.5l-37.7 5.3 53.1-72.7-14.3 66.3c-0.1 0.3 0.2 0.6 0.5 0.6z"/>
					<path id="&lt;Path&gt;" class="s0" d="m209.4 244.8c-28.8-20.3-47.6-53.9-47.6-91.8 0-62 50.2-112.3 112.2-112.3q0.3 0 0.5 0l12.5-8.8q-6.4-0.7-13-0.7c-67.2 0-121.7 54.5-121.7 121.8 0 41.8 21.1 78.8 53.3 100.7z"/>
					<path id="&lt;Path&gt;" class="s0" d="m332.8 46.3l-3.8 8.8c34.2 19.2 57.3 55.8 57.3 97.9 0 62-50.2 112.2-112.3 112.2-7.8 0-15.5-0.8-22.9-2.3l-9.4 7.5c10.3 2.8 21.2 4.3 32.3 4.3 67.3 0 121.8-54.5 121.8-121.7 0-46-25.4-86-63-106.7z"/>
				</g>
			</g>
			<g id="&lt;Group&gt;">
				<path id="SynNova" class="s0" aria-label="SynNova"  d="m456.2 186c22.1 0 32.3-11 32.3-23.8 0-30.7-50.6-17.9-50.6-38.4 0-7.3 6.1-13.2 20.3-13.2 7.4 0 15.6 2.1 22.9 6.8l4-9.6c-7-4.8-17.1-7.4-26.9-7.4-22 0-32 11-32 23.9 0 31.1 50.6 18.2 50.6 38.6 0 7.3-6.2 12.9-20.6 12.9-10.8 0-21.4-4.1-27.6-9.7l-4.5 9.3c6.7 6.3 19.3 10.6 32.1 10.6zm91.7-64.3l-21.9 50.6-22.1-50.6h-11.9l28 63.2-2.1 4.4c-3.1 7.3-6.5 9.8-12 9.8-4.3 0-8.3-1.7-11.4-4.7l-4.9 8.6c4 3.9 10.2 5.9 16.3 5.9 9.6 0 16.9-4.2 22.5-17.6l30.7-69.6zm55.8-0.6c-10 0-18.1 3.7-22.8 10.1v-9.5h-11v63.3h11.5v-32.6c0-13.8 7.9-21 20.1-21 10.8 0 17.1 6 17.1 18.5v35.1h11.4v-36.4c0-18.7-10.8-27.5-26.3-27.5zm109.3-19.7v62.3l-50.2-62.3h-9.8v83.6h11.9v-62.4l50.2 62.4h9.8v-83.6zm62.5 84.3c19 0 32.8-13.5 32.8-32.4 0-18.8-13.8-32.2-32.8-32.2-19 0-33 13.4-33 32.2 0 18.9 14 32.4 33 32.4zm0-10c-12.2 0-21.4-8.9-21.4-22.4 0-13.5 9.2-22.2 21.4-22.2 12.2 0 21.3 8.7 21.3 22.2 0 13.5-9.1 22.4-21.3 22.4zm91.7-54l-22.2 50.8-21.7-50.8h-12l27.8 63.3h11.7l27.7-63.3zm43-0.6c-10.2 0-19.6 2.8-26.2 8.1l4.8 8.6c4.9-4.2 12.6-6.8 20.1-6.8 11.3 0 16.9 5.6 16.9 15.3v2.3h-18.1c-18.9 0-25.5 8.3-25.5 18.5 0 11 9.1 18.6 23.5 18.6 9.9 0 16.9-3.3 20.7-9.1v8.4h10.9v-38.2c0-17.4-9.8-25.7-27.1-25.7zm-2.6 55.8c-8.8 0-14-4-14-10.3 0-5.4 3.2-9.8 14.6-9.8h17.6v8.8c-2.8 7.3-9.6 11.3-18.2 11.3z"/>
			</g>
		</g>
	</g>
</svg>