<svg version="1.2" xmlns="http://www.w3.org/2000/svg" viewBox="0 0 500 500" width="500" height="500">
	<title>Logo-SynNova-Icone_Branco</title>
	<style>
		.s0 { fill: #085162 } 
		.s1 { fill: #ffffff } 
	</style>
	<g id="Camada 1">
		<g id="&lt;Group&gt;">
			<g id="&lt;Group&gt;">
				<g id="&lt;Group&gt;">
					<path id="&lt;Path&gt;" class="s0" d="m363.8 285.6c3.2-35.7-32-73.7-71.9-88.3-6.8-2.5-10.1-10.3-7.9-17.3l73.3-161-206.7 127.8h0.1c-20.6 13.5-34.2 36.7-34.2 63.1 0 31.2 15.9 70.3 73.1 83.4 6.6 3.2 10.2 10.5 7.8 17.5l-73.7 169.9 199.2-130.1q0.1 0 0.1 0v-0.1c21.7-13.2 38.3-37.7 40.8-64.9z"/>
					<path id="&lt;Path&gt;" class="s1" d="m310 231.6l-98.1 130.6 27.8-118c0.1-0.5-0.3-1-0.8-0.9l-61.7 8.7 87-119.1-23.5 108.7c-0.1 0.5 0.3 0.9 0.8 0.9z"/>
					<path id="&lt;Path&gt;" class="s0" d="m144.6 405.8c-47.3-33.3-78.1-88.2-78.1-150.4 0-101.5 82.3-183.8 183.8-183.8q0.4 0 0.8 0l20.4-14.4q-10.4-1.1-21.2-1.1c-110 0-199.3 89.2-199.3 199.3 0 68.5 34.6 129 87.2 164.9z"/>
					<path id="&lt;Path&gt;" class="s0" d="m346.5 82.2l-6.2 14.3c56 31.5 93.8 91.5 93.8 160.3 0 101.5-82.3 183.8-183.8 183.8-12.9 0-25.4-1.3-37.6-3.8l-15.3 12.2c16.9 4.6 34.6 7.1 52.9 7.1 110.1 0 199.3-89.2 199.3-199.3 0-75.2-41.6-140.6-103.1-174.6z"/>
				</g>
			</g>
			<g id="&lt;Group&gt;">
			</g>
		</g>
	</g>
</svg>